<?xml version="1.0" encoding="utf-8"?>
<!-- Generator: Adobe Illustrator 27.0.0, SVG Export Plug-In . SVG Version: 6.00 Build 0)  -->
<svg version="1.1" id="Layer_1" xmlns="http://www.w3.org/2000/svg" xmlns:xlink="http://www.w3.org/1999/xlink" x="0px" y="0px"
	 viewBox="0 0 1000.8 737.6" style="enable-background:new 0 0 1000.8 737.6;" xml:space="preserve">
<style type="text/css">
	.st0{fill:#231F20;}
	.st1{fill:#0B4D76;}
	.st2{font-family:'ArialMT';}
	.st3{font-size:59.73px;}
	.st4{fill:none;stroke:#008DC4;stroke-width:4;stroke-linecap:square;stroke-miterlimit:10;}
	.st5{fill:#008DC4;}
	.st6{font-size:43px;}
	.st7{fill:none;stroke:#0B4D76;stroke-width:5;stroke-linecap:round;stroke-linejoin:round;}
	.st8{font-size:50px;}
	.st9{fill:#0B4D76;stroke:#CB9831;stroke-width:2;stroke-miterlimit:10;}
	.st10{fill:#231F20;stroke:#CB9831;stroke-width:2;stroke-miterlimit:10;}
	.st11{fill:#E33B63;}
	.st12{fill:#FFFFFF;}
</style>
<rect x="484.8" y="462" class="st0" width="515.9" height="275.5"/>
<text transform="matrix(1 0 0 1 7.37 385.87)" class="st1 st2 st3">C</text>
<text transform="matrix(1 0 0 1 145.83 385.87)" class="st1 st2 st3">C</text>
<text transform="matrix(1 0 0 1 52.73 385.87)" class="st1 st2 st3">H</text>
<text transform="matrix(1 0 0 1 50.8 437.33)" class="st1 st2 st3">L</text>
<text transform="matrix(1 0 0 1 13.31 489.62)" class="st1 st2 st3">S</text>
<text transform="matrix(1 0 0 1 106.1 437.33)" class="st1 st2 st3">T</text>
<text transform="matrix(1 0 0 1 62.84 490.49)" class="st1 st2 st3">T</text>
<text transform="matrix(1 0 0 1 101.01 489.62)" class="st1 st2 st3">A</text>
<text transform="matrix(1 0 0 1 147.62 490.49)" class="st1 st2 st3">Y</text>
<text transform="matrix(1 0 0 1 149.2 437.43)" class="st1 st2 st3">E</text>
<g>
	<path class="st4" d="M126.8,343.5c0.8,0,2,0.1,3.4,0.5c4.4,1.4,6.7,4.9,7.3,5.9c0.7,1.1,2.1,3.5,2,6.6c0,1.4-0.3,2.4-0.6,3.2
		c-1.6,5-4.6,9.4-7.7,13.5c-1.2,1.6-2.9,3.8-5.1,6.4c-2.1-2.2-3.8-4.2-5-5.8c-2.9-3.8-4.6-6.9-5.7-9c-2-3.7-2.3-5-2.4-5.8
		c-0.5-3.1,0.2-5.5,0.5-6.4c0.6-1.9,1.5-3.2,2.2-4"/>
	<circle class="st4" cx="120.3" cy="344.9" r="0.3"/>
	<circle class="st5" cx="126.2" cy="357.5" r="5.1"/>
</g>
<path class="st5" d="M31.8,429c2.5,0.1,17.2-0.3,13.8,4.7c-5.2,4.6-22.4,4.6-27.6,0C14.5,428.7,29.3,429.1,31.8,429L31.8,429
	L31.8,429z M31.8,429c-4.1,0.1-8.5,0.4-12.2,2.5c-0.3,0.2-0.7,0.5-0.7,0.8c2.6,2.4,23.1,2.5,25.7,0c0.1,0-0.2-0.5-0.7-0.8
	C40.3,429.4,35.9,429.1,31.8,429L31.8,429L31.8,429z"/>
<text transform="matrix(1 0 0 1 74.1 426.78)" class="st1 st2 st6">A</text>
<path class="st7" d="M11,326.5h183.6c4.7,0,8.5,3.8,8.5,8.5v164.4c0,4.7-3.8,8.5-8.5,8.5H11c-4.7,0-8.5-3.8-8.5-8.5V335.1
	C2.5,330.4,6.3,326.5,11,326.5z"/>
<text transform="matrix(1 0 0 1 10.61 431.6)" class="st1 st2 st8">O</text>
<path class="st1" d="M357.7,46.5c0-8.4,0-16.9-0.1-25.3c-2.5-1.4-6.5-3.5-11.5-5.4c-6.7-2.5-31.3-11.9-57.4-1.4
	c-4.5,1.8-13.9,5.7-22.4,15c-2.2,2.4-11.8,13.3-14.5,30.6c-0.7,4.6-2.4,16.2,2.8,29.5c7,17.7,21.4,26.1,26.1,28.6
	c0,0,23.1,12.9,53,4c3.3-1,7-2.4,10.8-5.1c3.2-2.2,10.7-7.5,12.5-17c0.4-1.9,1.1-6.9-1.1-12.5c-0.8-1.9-2.8-6.2-11.1-12.2
	c-1.5-1.1-2.8-1.9-4.1-2.7c-8.2-4.7-12-5.5-19.2-9.2c-6.2-3.2-9.8-5-13.4-9.2c-2.3-2.7-6.2-7.3-5.4-13.2c0.7-4.3,3.6-7.1,4.9-8.1
	c0,0,0.2-0.2,0.5-0.4c4.1-3.1,14.2-5.1,20.7,0.4c1,0.9,2.8,2.7,4,5.7c0.8-2.5,1.5-5,2.3-7.4c-1.2-1.1-3.1-2.7-5.6-4
	c-3.4-1.7-6.3-2.2-7.8-2.4c-11.5-1.7-20.2,4-20.2,4c-2.9,1.9-11.4,8.2-12,18.9c-0.6,10.4,6.6,17.6,9.2,20.1
	c2.2,2.2,5.9,4.3,13.2,8.4c8.2,4.6,10.6,5,16.9,9.1s9.5,6.1,11.1,9.5c2.6,5.7,1.1,12.6-2.1,17.3c-3.1,4.5-7.4,6.3-9.9,7.4
	c-11.8,4.8-23.5,0.2-27.1-1.1c-14.3-5.5-21.4-16.8-23.5-20.3c-8-13.1-7.7-25.9-7.5-34.7c0.1-6.5,0.4-14.2,4.5-23
	c1.5-3.3,5.6-11.6,14.9-18.1c1.5-1,9-6.2,20.4-7.6c4.6-0.6,17.6-2.3,29.1,5.5c8.5,5.8,13.1,14.7,14.3,17c0.8,1.5,1.4,3,1.4,3
	L357.7,46.5L357.7,46.5z"/>
<g>
	<path class="st9" d="M710.9,48.2c0-9.9-0.1-19.9-0.1-29.8c-5.2,0.1-10.4,0.2-15.6,0.2c-3.5-2.8-9-6.6-16.2-9.9
		c-37.6-17.5-75.6,0.1-78.6,1.6c-25.3,12.2-37.6,32.4-41,38.5c-3,5.3-21.5,39.5-6.5,78.9c12.3,32.4,39.2,46.6,46.3,50
		c21.5,10.4,41.3,9.8,50.3,9l-25.2-26.1c-0.4,7-0.8,14.1-1.2,21.1c-6.2-2.4-16.9-7.6-26.1-18.2c-8.2-9.4-11.3-18.6-14.4-27.9
		c-1.5-4.4-6.2-19.3-6.4-39.8c0-8.8,0-26.2,8.1-46c2.9-7.1,5.5-13.3,11.3-20.1c11.3-13.2,25.5-17.5,30.3-18.9
		c14.9-4.3,27.3-2.1,32.6-1.1c19.7,3.8,32.2,13.9,34.7,16C702.8,33.8,708.2,42.7,710.9,48.2L710.9,48.2z"/>
	<path class="st9" d="M646.1,23.4c-18.9,4.7-31.9,16-32.1,27.1c-0.1,5.8,3.2,11.3,4.7,13.7c4,6.7,9.5,10.9,17.2,15.4
		c14.5,8.3,19.6,7.7,32.8,14c12.7,6,22.6,10.7,29.8,21.2c1.8,2.6,13.2,19,7.2,38.4c-7.2,23.2-32.5,29.3-33.6,29.5
		c1.4-0.3,14.7-3.9,18.4-15.3c4.1-12.5-6.7-24-9.2-26.7c-2.7-3-8.6-6.2-20.4-12.4c-10.8-5.7-20.5-10.4-23.5-11.9
		c-16.2-7.8-17.4-7.9-21.7-10.9c-5.6-4-12.8-9.2-17-18.6c-7.5-16.7,0.2-33.1,0.9-34.7c4.4-9,11-13.9,15.8-17.3
		C627.5,26.2,639.7,24.1,646.1,23.4L646.1,23.4z"/>
</g>
<g>
	<path class="st1" d="M928,57.3c0-9.9-0.1-19.9-0.1-29.8c-5.2,0.1-10.4,0.2-15.6,0.2c-3.5-2.8-9-6.6-16.2-9.9
		c-37.6-17.5-75.6,0.1-78.6,1.5c-25.3,12.2-37.6,32.4-41,38.5c-3,5.3-21.5,39.5-6.5,78.9c12.3,32.4,39.2,46.6,46.3,50
		c21.5,10.4,41.3,9.8,50.3,9l-25.2-26.1c-0.4,7-0.8,14.1-1.2,21.1c-6.2-2.4-16.9-7.6-26.1-18.2c-8.2-9.4-11.3-18.6-14.4-27.9
		c-1.5-4.4-6.2-19.3-6.4-39.8c0-8.8,0-26.2,8.1-46c2.9-7.1,5.5-13.3,11.3-20.1C824,25.4,838.2,21.1,843,19.8
		c14.9-4.3,27.3-2.1,32.6-1.1c19.7,3.8,32.2,13.9,34.7,16C919.9,42.8,925.2,51.7,928,57.3L928,57.3z"/>
	<path class="st1" d="M863.1,32.5c-18.9,4.7-31.9,16-32.1,27.1c-0.1,5.8,3.2,11.3,4.7,13.7c4,6.7,9.5,10.9,17.2,15.4
		c14.5,8.3,19.6,7.7,32.8,14c12.7,6,22.6,10.7,29.8,21.2c1.8,2.6,13.2,19,7.2,38.4c-7.2,23.2-32.5,29.3-33.6,29.5
		c1.4-0.3,14.7-3.9,18.4-15.3c4.1-12.5-6.7-24-9.2-26.7c-2.7-3-8.6-6.2-20.4-12.4c-10.8-5.7-20.5-10.4-23.5-11.9
		c-16.2-7.8-17.4-7.9-21.7-10.9c-5.6-4-12.8-9.2-17-18.6c-7.5-16.7,0.2-33.1,0.9-34.7c4.4-9,11-13.9,15.8-17.3
		C844.6,35.3,856.7,33.1,863.1,32.5L863.1,32.5z"/>
</g>
<g>
	<path class="st10" d="M707.5,282.7c0-9.9-0.1-19.9-0.1-29.8c-5.2,0.1-10.4,0.2-15.6,0.2c-3.5-2.8-9-6.6-16.2-9.9
		c-37.6-17.5-75.6,0.1-78.6,1.6c-25.3,12.2-37.6,32.4-41,38.5c-3,5.3-21.5,39.5-6.5,78.9c12.3,32.4,39.2,46.5,46.3,50
		c21.5,10.4,41.3,9.8,50.3,9c-8.4-8.7-16.8-17.4-25.2-26.1c-0.4,7-0.8,14.1-1.2,21.1c-6.2-2.4-16.9-7.6-26.1-18.2
		c-8.2-9.4-11.3-18.6-14.4-27.9c-1.5-4.4-6.2-19.3-6.4-39.8c0-8.8,0-26.2,8.1-46c2.9-7.1,5.5-13.3,11.3-20.1
		c11.3-13.2,25.5-17.5,30.3-18.9c14.9-4.3,27.3-2.1,32.6-1.1c19.7,3.8,32.2,13.9,34.7,16C699.4,268.2,704.7,277.2,707.5,282.7
		L707.5,282.7z"/>
	<path class="st10" d="M642.6,257.9c-18.9,4.7-31.9,16-32.1,27.1c-0.1,5.8,3.2,11.4,4.7,13.7c4,6.7,9.5,10.9,17.2,15.4
		c14.5,8.3,19.6,7.7,32.8,14c12.7,6,22.6,10.7,29.8,21.2c1.8,2.6,13.2,19,7.2,38.4c-7.2,23.2-32.5,29.3-33.6,29.5
		c1.4-0.3,14.7-3.9,18.4-15.3c4.1-12.5-6.7-24-9.2-26.7c-2.7-3-8.6-6.2-20.4-12.4c-10.8-5.7-20.5-10.4-23.5-11.9
		c-16.2-7.8-17.4-7.9-21.7-11c-5.6-4-12.8-9.2-17-18.6c-7.5-16.7,0.2-33.1,0.9-34.7c4.4-9,11-13.9,15.8-17.3
		C624.1,260.7,636.2,258.5,642.6,257.9L642.6,257.9z"/>
</g>
<g>
	<path class="st1" d="M924.5,285.8c0-9.9-0.1-19.9-0.1-29.8c-5.2,0.1-10.4,0.2-15.6,0.2c-3.5-2.8-9-6.6-16.2-9.9
		c-37.6-17.5-75.6,0.1-78.6,1.6c-25.3,12.2-37.6,32.4-41,38.5c-3,5.3-21.5,39.5-6.5,78.9c12.3,32.4,39.2,46.5,46.3,50
		c21.5,10.4,41.3,9.8,50.3,9c-8.4-8.7-16.8-17.4-25.2-26.1c-0.4,7-0.8,14.1-1.2,21.1c-6.2-2.4-16.9-7.6-26.1-18.2
		c-8.2-9.4-11.3-18.6-14.4-27.9c-1.5-4.4-6.2-19.3-6.4-39.8c0-8.8,0-26.2,8.1-46c2.9-7.1,5.5-13.3,11.3-20.1
		c11.3-13.2,25.5-17.5,30.3-18.9c14.9-4.3,27.3-2.1,32.6-1.1c19.7,3.8,32.2,13.9,34.7,16C916.4,271.3,921.8,280.3,924.5,285.8
		L924.5,285.8z"/>
	<path class="st11" d="M859.7,261c-18.9,4.7-31.9,16-32.1,27.1c-0.1,5.8,3.2,11.4,4.7,13.7c4,6.7,9.5,10.9,17.2,15.4
		c14.5,8.3,19.6,7.7,32.8,14c12.7,6,22.6,10.7,29.8,21.2c1.8,2.6,13.2,19,7.2,38.4c-7.2,23.2-32.5,29.3-33.6,29.5
		c1.4-0.3,14.7-3.9,18.4-15.3c4.1-12.5-6.7-24-9.2-26.7c-2.7-3-8.6-6.2-20.4-12.4c-10.8-5.7-20.5-10.4-23.5-11.9
		c-16.2-7.8-17.4-7.9-21.7-11c-5.6-4-12.8-9.2-17-18.6c-7.5-16.7,0.2-33.1,0.9-34.7c4.4-9,11-13.9,15.8-17.3
		C841.1,263.8,853.3,261.6,859.7,261L859.7,261z"/>
</g>
<g>
	<path class="st12" d="M717.7,536.8c0-9.9-0.1-19.9-0.1-29.8c-5.2,0.1-10.4,0.2-15.6,0.2c-3.5-2.8-9-6.6-16.2-9.9
		c-37.6-17.5-75.6,0.1-78.6,1.5c-25.3,12.2-37.6,32.4-41,38.5c-3,5.3-21.5,39.5-6.5,78.9c12.3,32.4,39.2,46.5,46.3,50
		c21.5,10.4,41.3,9.8,50.3,9c-8.4-8.7-16.8-17.4-25.2-26.1c-0.4,7-0.8,14.1-1.2,21.1c-6.2-2.4-16.9-7.6-26.1-18.2
		c-8.2-9.4-11.3-18.6-14.4-27.9c-1.5-4.3-6.2-19.3-6.4-39.8c0-8.8,0-26.2,8.1-46c2.9-7.1,5.5-13.3,11.3-20.1
		c11.3-13.2,25.5-17.5,30.3-18.9c14.9-4.3,27.3-2.1,32.6-1.1c19.7,3.8,32.2,13.9,34.7,16C709.6,522.4,714.9,531.3,717.7,536.8
		L717.7,536.8z"/>
	<path class="st11" d="M652.8,512c-18.9,4.7-31.9,16-32.1,27.1c-0.1,5.8,3.2,11.3,4.7,13.7c4,6.7,9.5,10.9,17.2,15.4
		c14.5,8.3,19.6,7.7,32.8,14c12.7,6,22.6,10.7,29.8,21.2c1.8,2.6,13.2,19,7.2,38.4c-7.2,23.2-32.5,29.3-33.6,29.5
		c1.4-0.3,14.7-3.9,18.4-15.3c4.1-12.5-6.7-24-9.2-26.7c-2.7-3-8.6-6.2-20.4-12.4c-10.8-5.7-20.5-10.4-23.5-11.9
		c-16.2-7.8-17.4-7.9-21.7-11c-5.6-4-12.8-9.2-17-18.6c-7.5-16.7,0.2-33.1,0.9-34.7c4.4-9,11-13.9,15.8-17.3
		C634.3,514.8,646.4,512.7,652.8,512L652.8,512z"/>
</g>
<g>
	<path class="st12" d="M934.7,539.9c0-9.9-0.1-19.9-0.1-29.8c-5.2,0.1-10.4,0.2-15.6,0.2c-3.5-2.8-9-6.6-16.2-9.9
		c-37.6-17.5-75.6,0.1-78.6,1.5c-25.3,12.2-37.6,32.4-41,38.5c-3,5.3-21.5,39.5-6.5,78.9c12.3,32.4,39.2,46.5,46.3,50
		c21.5,10.4,41.3,9.8,50.3,9c-8.4-8.7-16.8-17.4-25.2-26.1c-0.4,7-0.8,14.1-1.2,21.1c-6.2-2.4-16.9-7.6-26.1-18.2
		c-8.2-9.4-11.3-18.6-14.4-27.9c-1.5-4.3-6.2-19.3-6.4-39.8c0-8.8,0-26.2,8.1-46c2.9-7.1,5.5-13.3,11.3-20.1
		c11.3-13.2,25.5-17.5,30.3-18.9c14.9-4.3,27.3-2.1,32.6-1.1c19.7,3.8,32.2,13.9,34.7,16C926.6,525.5,931.9,534.4,934.7,539.9
		L934.7,539.9z"/>
	<path class="st12" d="M869.9,515.1c-18.9,4.7-31.9,16-32.1,27.1c-0.1,5.8,3.2,11.3,4.7,13.7c4,6.7,9.5,10.9,17.2,15.4
		c14.5,8.3,19.6,7.7,32.8,14c12.7,6,22.6,10.7,29.8,21.2c1.8,2.6,13.2,19,7.2,38.4c-7.2,23.2-32.5,29.3-33.6,29.5
		c1.4-0.3,14.7-3.9,18.4-15.3c4.1-12.5-6.7-24-9.2-26.7c-2.7-3-8.6-6.2-20.4-12.4c-10.8-5.7-20.5-10.4-23.5-11.9
		c-16.2-7.8-17.4-7.9-21.7-11c-5.6-4-12.8-9.2-17-18.6c-7.5-16.7,0.2-33.1,0.9-34.7c4.4-9,11-13.9,15.8-17.3
		C851.3,518,863.5,515.8,869.9,515.1L869.9,515.1z"/>
</g>
</svg>
